# xmcd
#
# Track frame offsets:
#	150
#	20263
#	37148
#	51178
#	65590
#	82395
#	102665
#	116025
#	132248
#	151700
#	171653
#	179033
#	199563
#
# Disc length: 2883 seconds
# Revision: 0
# Processed by: cddbd v1.5.2PL0 Copyright (c) Steve Scherf et al.
# Submitted via: dBpowerAMP V12.0
#
DISCID=c20b410d
DTITLE=Richard Greene - Wolves A' Howlin'
DYEAR=1996
DGENRE=Country
TTITLE0=Wolves A' Howlin'
TTITLE1=The Indiana Waltz
TTITLE2=On the Move
TTITLE3=Shaking off the Acorns
TTITLE4=Evening Prayer Blues
TTITLE5=The Pipehorn Hornpipe
TTITLE6=Charleston
TTITLE7=Sometime Next Summer
TTITLE8=Horseshoe Bend
TTITLE9=Nervous Breakdown
TTITLE10=Peaches and Cream
TTITLE11=Twinkle, Twinkle Little Star
TTITLE12=Get up John
EXTD=
EXTT0=
EXTT1=
EXTT2=
EXTT3=
EXTT4=
EXTT5=
EXTT6=
EXTT7=
EXTT8=
EXTT9=
EXTT10=
EXTT11=
EXTT12=
PLAYORDER=
